# xmcd CD database file
#
# Track frame offsets:
#	150
#	20140
#	33460
#	57333
#	74930
#	91420
#	115685
#	133868
#	146503
#	160813
#	183470
#	196623
#	211998
#	234825
#	253495
#
# Disc length: 3594 seconds
#
# Revision: 2
# Processed by: cddbd v1.5.1PL2 Copyright (c) Steve Scherf et al.
# Submitted via: CDex 1.51
#
DISCID=e00e080f
DTITLE=Lefthand Freddy and the Aces - Blue tonight
DYEAR=1994
DGENRE=Blues
TTITLE0=Slidin' turtle
TTITLE1=Waisting time
TTITLE2=TLC blues
TTITLE3=Keep my cool
TTITLE4=Blue tonight
TTITLE5=For so long
TTITLE6=Tell me woman
TTITLE7=Too much preachin'
TTITLE8=My blues keeps rollin' on
TTITLE9=Have a right to love
TTITLE10=Blues for nothing
TTITLE11=Stumble and falls
TTITLE12=Blues in a room
TTITLE13=Oh Loretta!
TTITLE14=Coldest woman, fastest man in town
EXTD=YEAR: 1994
EXTT0=
EXTT1=
EXTT2=
EXTT3=
EXTT4=
EXTT5=
EXTT6=
EXTT7=
EXTT8=
EXTT9=
EXTT10=
EXTT11=
EXTT12=
EXTT13=
EXTT14=
PLAYORDER=
